# xmcd
#
# Track frame offsets:
#	150
#	18447
#	36195
#	52560
#	67167
#	86992
#	104605
#	118062
#	135590
#	139635
#	153335
#	168155
#	187565
#	210710
#	224352
#	243650
#	261532
#
# Disc length: 3790 seconds
#
# Revision: 0
# Processed by: cddbd v1.5.1PL0 Copyright (c) Steve Scherf et al.
# Submitted via: EasyCDDAExtractor 7.1.3.1
#
DISCID=f40ecc11
DTITLE=Jacki-O - Jacki-O- Poe Little Rich Girl
DYEAR=2004
DGENRE=Hip-Hop
TTITLE0=Living It Up (feat O'Damia)
TTITLE1=Ms Jacki
TTITLE2=Break You Off (feat Jazze Pha)
TTITLE3=Shut The Fuck Up (skit)
TTITLE4=Pussy (Real Good) (feat Rodney)
TTITLE5=Fine (feat Yin Yang Twins)
TTITLE6=Slow Down
TTITLE7=Sugar Walls
TTITLE8=Holla Back (skit)
TTITLE9=Gangsta Bitch
TTITLE10=Somebody's Getting Fucked
TTITLE11=Ghetto World (feat O'Damia)
TTITLE12=Sleeping With The Enemy (feat Ms Betty Wright)
TTITLE13=Champion (feat Trick Daddy)
TTITLE14=Pretty
TTITLE15=Sexxy Dance
TTITLE16=Tooken Back (feat Ghostface)
EXTD=
EXTT0=
EXTT1=
EXTT2=
EXTT3=
EXTT4=
EXTT5=
EXTT6=
EXTT7=
EXTT8=
EXTT9=
EXTT10=
EXTT11=
EXTT12=
EXTT13=
EXTT14=
EXTT15=
EXTT16=
PLAYORDER=
